<?xml version="1.0" encoding="utf-8"?>
<!-- Generator: Adobe Illustrator 25.2.0, SVG Export Plug-In . SVG Version: 6.00 Build 0)  -->
<svg version="1.1" id="Layer_1" xmlns="http://www.w3.org/2000/svg" xmlns:xlink="http://www.w3.org/1999/xlink" x="0px" y="0px"
	 viewBox="0 0 512 512" style="enable-background:new 0 0 512 512;" xml:space="preserve">
<style type="text/css">
	.st0{fill:#837790;}
</style>
<g transform="translate(0.000000,512.000000) scale(0.100000,-0.100000)">
	<path class="st0" d="M2360,5104c-289-61-531-251-660-518c-76-155-95-240-95-421s19-266,95-421c82-169,200-300,361-399
		c151-93,305-135,499-135s348,42,499,135c161,99,279,230,361,399c75,155,94,240,94,421s-19,266-94,421c-130,268-373,459-662,518
		C2663,5124,2451,5124,2360,5104z M2594,4669c35-16,52-61,37-98c-15-35-40-48-109-55c-81-8-165-51-222-113c-52-56-90-140-90-197
		c0-85-50-136-112-114c-37,13-48,35-48,101c0,137,80,287,204,381C2363,4657,2523,4701,2594,4669z"/>
	<path class="st0" d="M2200,2631v-471h360h360v471v471l-22-6c-214-64-462-64-675,0l-23,6V2631z"/>
	<path class="st0" d="M1643,1979c-68-26-145-96-177-162l-27-52l561-3c308-1,812-1,1120,0l561,3l-27,52c-33,67-110,136-180,162
		c-54,21-71,21-917,20C1720,1999,1693,1998,1643,1979z"/>
	<path class="st0" d="M1250,1571c-158-51-307-168-432-338c-81-110-172-307-202-435l-6-28h490c467,0,490,1,490,18
		c0,75,84,192,167,233l48,24h755h755l48-24c83-41,167-158,167-233c0-17,23-18,490-18h490l-6,28c-17,74-60,186-107,276
		c-118,231-289,400-489,485l-63,26l-1270,2C1380,1589,1302,1588,1250,1571z"/>
	<path class="st0" d="M1823,875c-31-13-73-66-73-92c0-10,169-13,810-13s810,3,810,13c0,27-42,79-75,93C3244,897,1871,896,1823,875z"
		/>
	<path class="st0" d="M507,599c-90-21-160-79-199-164c-35-77-33-200,5-277c16-32,46-73,69-92C465-5,291,0,2560,0s2095-5,2178,66
		c23,19,53,60,69,92c38,77,40,200,5,278c-29,63-82,116-147,146l-50,23l-2035,2C1414,607,529,604,507,599z"/>
</g>
</svg>
