<?xml version="1.0" encoding="utf-8"?>
<!-- Generator: Adobe Illustrator 25.2.0, SVG Export Plug-In . SVG Version: 6.00 Build 0)  -->
<svg version="1.1" id="Layer_1" xmlns="http://www.w3.org/2000/svg" xmlns:xlink="http://www.w3.org/1999/xlink" x="0px" y="0px"
	 viewBox="0 0 512 512" style="enable-background:new 0 0 512 512;" xml:space="preserve">
<style type="text/css">
	.st0{fill:#837790;}
</style>
<g transform="translate(0.000000,512.000000) scale(0.100000,-0.100000)">
	<path class="st0" d="M679,5107c-20-8-53-24-72-36c-37-23-117-107-117-122c0-5-8-9-18-9c-35,0-140-61-177-102c-64-70-90-139-89-238
		c0-66,5-96,21-133c41-89,56-102,220-188c145-76,155-83,133-93c-173-77-434-204-436-211c-2-6,71-53,161-105c91-52,165-98,165-101
		c0-4-14-37-31-73c-82-174-24-358,135-427l54-24l5-410c4-362,7-421,25-505c40-191,107-351,214-512c49-75,127-159,395-428l333-336
		V739c0-350-2-360-70-407c-32-21-40-22-296-22H970V155V-1l543,3l542,3l70,34c92,45,171,124,216,216l34,70l3,491l3,492l267,148
		c293,162,538,320,620,401c101,100,155,265,132,407c-6,38-9,70-7,73c7,7,114-44,164-78c163-112,275-273,324-468c18-71,21-104,17-205
		c-6-154-22-197-156-429c-56-97-102-178-102-181c0-9,48,12,172,74c319,161,445,275,563,510c82,163,115,307,115,500
		c0,314-109,575-327,781c-126,118-266,207-422,265l-85,32l49,7c77,12,241-2,346-28c353-91,583-305,665-616c20-77,36-299,29-400
		l-6-86l21,25c31,35,101,177,143,290c183,489,66,1017-303,1363c-186,175-421,291-675,333c-153,25-364,15-517-24
		c-365-94-668-347-833-693c-24-52-56-137-70-189l-25-95l37-30c248-196,404-479,420-760l6-100l-119-57c-211-100-367-138-561-138
		c-334,0-649,146-938,435c-96,96-245,280-245,302c0,6,44,37,97,68c54,32,108,65,119,72c20,13,24,10,69-52c69-97,216-247,314-321
		c284-213,576-267,888-163c35,11,65,24,67,28c8,13-51,170-85,227c-103,170-239,277-448,353c-146,53-243,128-322,249
		c-59,90-65,109-189,585c-55,214-109,410-119,437c-22,58-77,136-127,180l-36,31l77,169l77,168l-11,67c-7,37-23,89-36,114
		c-29,59-112,136-173,163c-53,24-160,34-211,21c-27-7-43-4-85,17c-41,20-68,25-141,28C748,5119,702,5115,679,5107z M2068,760l-3-370
		l-37-36c-30-31-45-38-89-42c-49-4-52-4-43,14c4,10,10,177,12,370l3,351l72,41c40,22,76,41,80,41C2067,1130,2069,964,2068,760z"/>
</g>
</svg>
