<?xml version="1.0" encoding="utf-8"?>
<!-- Generator: Adobe Illustrator 25.2.0, SVG Export Plug-In . SVG Version: 6.00 Build 0)  -->
<svg version="1.1" id="Layer_1" xmlns="http://www.w3.org/2000/svg" xmlns:xlink="http://www.w3.org/1999/xlink" x="0px" y="0px"
	 viewBox="0 0 512 512" style="enable-background:new 0 0 512 512;" xml:space="preserve">
<style type="text/css">
	.st0{fill:#837790;}
</style>
<g transform="translate(0.000000,512.000000) scale(0.100000,-0.100000)">
	<path class="st0" d="M278,4201c-75-24-115-50-172-111c-45-48-87-124-101-180c-5-24,41-51,1275-738l1280-714l1281,714
		c1231,686,1280,714,1274,738c-25,110-136,239-242,282l-58,23l-2240,2C435,4219,332,4218,278,4201z"/>
	<path class="st0" d="M2,2388l3-1203l32-66c41-82,111-150,201-192l67-32l2225-3c1463-1,2241,1,2272,8c119,25,226,108,280,218l33,67
		l3,1203c1,662-1,1201-5,1199c-46-27-2459-1370-2490-1386c-53-26-73-26-126,0C2467,2216,85,3542,7,3587C3,3589,1,3050,2,2388z"/>
</g>
</svg>
