<?xml version="1.0" encoding="utf-8"?>
<!-- Generator: Adobe Illustrator 25.2.0, SVG Export Plug-In . SVG Version: 6.00 Build 0)  -->
<svg version="1.1" id="Layer_1" xmlns="http://www.w3.org/2000/svg" xmlns:xlink="http://www.w3.org/1999/xlink" x="0px" y="0px"
	 viewBox="0 0 512 512" style="enable-background:new 0 0 512 512;" xml:space="preserve">
<style type="text/css">
	.st0{fill:#837790;}
</style>
<g transform="translate(0.000000,512.000000) scale(0.100000,-0.100000)">
	<path class="st0" d="M676,5101c-66-44-66-43-66-391s0-347,66-391c28-18,84-19,1884-19s1856,1,1884,19c66,44,66,43,66,391
		s0,347-66,391c-28,18-84,19-1884,19S704,5119,676,5101z"/>
	<path class="st0" d="M910,3200v-800h155h155v49c0,70,42,195,90,268c46,70,136,157,202,196c187,109,436,104,615-13
		c156-103,273-298,273-457v-43h905h905v800v800H2560H910V3200z"/>
	<path class="st0" d="M1672,2669c-108-53-162-144-162-269s54-216,162-269c52-27,72-31,138-31s86,4,138,31c108,53,162,143,162,270
		c0,177-123,299-301,299C1744,2700,1724,2696,1672,2669z"/>
	<path class="st0" d="M747,1807c-53-161-97-296-97-300s227-7,505-7h505v163v162l-52,19c-104,37-220,125-283,215l-28,41h-226H845
		L747,1807z"/>
	<path class="st0" d="M2295,2059c-63-90-179-178-282-215l-53-19v-162v-163h549h548l5,93c3,57,11,104,21,124c35,67,135,94,201,54
		c52-32,68-73,74-178l5-93h147h147l5,93c3,57,11,104,21,124c35,66,133,94,199,56c52-31,70-74,76-179l5-94h253c140,0,254,3,254,7
		s-44,139-97,300l-98,293h-976h-976L2295,2059z"/>
	<path class="st0" d="M610,648c0-525,1-554,19-582c10-15,32-37,47-47C704,1,760,0,2560,0s1856,1,1884,19c15,10,37,32,47,47
		c18,28,19,57,19,582v552H2560H610V648z M3228,725c46-27,72-73,72-125s-26-98-72-125c-32-19-51-20-668-20s-636,1-668,20
		c-45,27-72,73-72,124c0,73,41,124,115,142c16,4,307,7,645,6C3176,745,3196,744,3228,725z M1434,721c43-29,66-70,66-121
		c0-142-182-193-261-74c-23,35-25,104-4,143C1268,734,1372,761,1434,721z M3834,721c43-29,66-70,66-121c0-142-182-193-261-74
		c-23,35-25,104-4,143C3668,734,3772,761,3834,721z"/>
</g>
</svg>
