<?xml version="1.0" encoding="utf-8"?>
<!-- Generator: Adobe Illustrator 25.2.0, SVG Export Plug-In . SVG Version: 6.00 Build 0)  -->
<svg version="1.1" id="Layer_1" xmlns="http://www.w3.org/2000/svg" xmlns:xlink="http://www.w3.org/1999/xlink" x="0px" y="0px"
	 viewBox="0 0 300 300" style="enable-background:new 0 0 300 300;" xml:space="preserve">
<style type="text/css">
	.st0{clip-path:url(#SVGID_2_);}
	.st1{fill:#FEFEFE;}
	.st2{fill:#C20F2D;}
	.st3{fill:#1A2673;}
</style>
<g>
	<defs>
		<circle id="SVGID_1_" cx="150.9" cy="153.9" r="128.9"/>
	</defs>
	<clipPath id="SVGID_2_">
		<use xlink:href="#SVGID_1_"  style="overflow:visible;"/>
	</clipPath>
	<g class="st0">
		<polygon class="st1" points="367.5,198.2 367.5,181.6 172.2,181.6 172.2,285.2 186.6,285.2 186.6,205.3 325.7,285.2 367.5,285.2 
			367.5,282.8 220.5,198.2 252.5,198.2 367.5,264.3 367.5,253.5 271,198.2 		"/>
		<polygon class="st1" points="-70,181.6 -70,198.2 30.4,198.2 -70,256.3 -70,283.9 78.7,198.2 110.9,198.2 -40.1,285.2 
			-23.9,285.2 114.8,205.3 114.8,285.2 129.2,285.2 129.2,181.6 		"/>
		<polygon class="st1" points="367.5,131.8 367.5,115.2 271,115.2 367.5,59.2 367.5,34.7 227.6,115.2 195.6,115.2 356.2,22.7 
			335,22.7 186.6,108.1 186.6,22.7 172.2,22.7 172.2,131.8 		"/>
		<polygon class="st1" points="129.2,22.7 114.8,22.7 114.8,108.1 -33.1,22.7 -70,22.7 -70,25 86,115.2 53.8,115.2 -70,43.6 
			-70,56.9 30.4,115.2 -70,115.2 -70,131.8 129.2,131.8 		"/>
		<polygon class="st2" points="227.6,115.2 367.5,34.7 367.5,22.7 356.2,22.7 195.6,115.2 		"/>
		<polygon class="st2" points="220.5,198.2 367.5,282.8 367.5,264.3 252.5,198.2 		"/>
		<polygon class="st2" points="86,115.2 -70,25 -70,43.6 53.8,115.2 		"/>
		<polygon class="st2" points="78.7,198.2 -70,283.9 -70,285.2 -40.1,285.2 110.9,198.2 		"/>
		<polygon class="st3" points="335,22.7 186.6,22.7 186.6,108.1 		"/>
		<polygon class="st3" points="114.8,22.7 -33.1,22.7 114.8,108.1 		"/>
		<polygon class="st3" points="367.5,115.2 367.5,59.2 271,115.2 		"/>
		<polygon class="st3" points="271,198.2 367.5,253.5 367.5,198.2 		"/>
		<polygon class="st3" points="-23.9,285.2 114.8,285.2 114.8,205.3 		"/>
		<polygon class="st3" points="186.6,285.2 325.7,285.2 186.6,205.3 		"/>
		<polygon class="st3" points="-70,198.2 -70,256.3 30.4,198.2 		"/>
		<polygon class="st3" points="-70,56.9 -70,115.2 30.4,115.2 		"/>
		<polygon class="st2" points="367.5,181.6 367.5,131.8 172.2,131.8 172.2,22.7 129.2,22.7 129.2,131.8 -70,131.8 -70,181.6 
			129.2,181.6 129.2,285.2 172.2,285.2 172.2,181.6 		"/>
	</g>
</g>
</svg>
