<?xml version="1.0" encoding="utf-8"?>
<!-- Generator: Adobe Illustrator 25.2.0, SVG Export Plug-In . SVG Version: 6.00 Build 0)  -->
<svg version="1.1" id="Layer_1" xmlns="http://www.w3.org/2000/svg" xmlns:xlink="http://www.w3.org/1999/xlink" x="0px" y="0px"
	 viewBox="0 0 512 512" style="enable-background:new 0 0 512 512;" xml:space="preserve">
<style type="text/css">
	.st0{fill:#837790;}
</style>
<g transform="translate(0.000000,512.000000) scale(0.100000,-0.100000)">
	<path class="st0" d="M2305,5113c-671-72-1279-393-1707-903c-301-358-488-764-571-1240C8,2861,6,2808,6,2560s2-301,21-410
		c94-540,320-987,693-1374c383-398,866-650,1430-749c109-19,162-21,410-21c313,0,407,10,653,73c882,228,1600,946,1828,1828
		c63,246,73,340,73,653s-10,407-73,653c-228,881-946,1600-1828,1828c-227,58-334,71-613,74C2460,5117,2327,5116,2305,5113z
		 M2750,4725v-195h-195h-195v195v195h195h195V4725z M1168,3953l-138-138l-135,135l-135,135l137,137l138,138l135-135l135-135
		L1168,3953z M4225,3950l-135-135l-137,137l-138,138l135,135l135,135l137-137l138-138L4225,3950z M2799,4324
		c478-70,890-311,1177-689c486-638,486-1512,0-2150c-597-785-1708-937-2491-341c-368,280-602,670-687,1146c-17,100-17,440,0,540
		c56,313,165,568,346,805c285,375,696,617,1171,689C2439,4343,2670,4343,2799,4324z M580,2560v-190H390H200v190v190h190h190V2560z
		 M4910,2560v-190h-195h-195v190v190h195h195V2560z M1170,1165l135-135l-135-135l-135-135L898,897l-138,138l132,132
		c73,73,135,133,138,133S1096,1239,1170,1165z M4228,1167l132-132l-138-138l-137-137l-135,135l-135,135l135,135
		c74,74,137,135,140,135S4155,1240,4228,1167z M2750,395V200h-195h-195v195v195h195h195V395z"/>
	<path class="st0" d="M2345,4005c-326-52-585-184-816-414c-233-234-364-493-415-826c-42-277,12-609,142-867c129-256,386-513,642-642
		c408-206,916-206,1324,0c256,129,513,386,642,642c184,365,205,810,57,1194c-125,322-392,617-699,772C2964,3994,2622,4049,2345,4005
		z M2716,3215c209-185,484-459,529-530c59-90,86-174,92-286c15-263-121-444-364-481c-125-20-234,12-328,94c-33,30-46,36-41,23
		c14-45,76-271,76-277c0-5-56-8-124-8h-124l39,133c21,72,39,138,39,145s-21-5-47-26c-94-78-185-105-311-90c-126,14-266,107-318,210
		c-63,124-71,304-21,442c38,104,86,167,251,331c164,162,487,456,498,452C2566,3346,2635,3287,2716,3215z"/>
</g>
</svg>
