<?xml version="1.0" encoding="utf-8"?>
<!-- Generator: Adobe Illustrator 25.2.0, SVG Export Plug-In . SVG Version: 6.00 Build 0)  -->
<svg version="1.1" id="Layer_1" xmlns="http://www.w3.org/2000/svg" xmlns:xlink="http://www.w3.org/1999/xlink" x="0px" y="0px"
	 viewBox="0 0 512 512" style="enable-background:new 0 0 512 512;" xml:space="preserve">
<style type="text/css">
	.st0{fill:#837790;}
</style>
<g transform="translate(0.000000,512.000000) scale(0.100000,-0.100000)">
	<path class="st0" d="M2225,5104c-60-8-155-25-210-37l-100-22l1-60c4-181,161-408,346-498c115-56,184-70,323-65c140,5,226,30,330,98
		c162,106,286,304,289,465l1,60l-95,21C2868,5120,2479,5136,2225,5104z"/>
	<path class="st0" d="M1520,4906c-300-133-528-292-771-535c-165-165-266-291-372-463c-109-175-217-406-194-412c6-2,52-13,102-25
		c315-75,584-340,677-666c20-69,23-103,23-245s-3-176-23-245c-93-326-362-591-677-666c-50-12-96-23-102-25c-22-6,84-234,185-398
		c205-334,525-654,858-858c165-102,392-207,398-185c2,6,13,52,25,102c44,185,169,378,324,500c363,288,866,275,1214-31
		c132-116,244-301,285-470c11-49,22-94,24-101c6-23,221,77,395,183c330,200,657,526,861,860c102,165,207,392,185,398
		c-6,2-52,13-102,25c-313,75-584,341-676,661c-30,107-38,317-14,431c72,356,347,648,691,731c49,11,94,22,101,24c23,6-77,221-183,395
		c-103,170-221,318-383,480c-165,164-300,273-468,376c-179,110-401,213-407,190c-2-7-13-52-25-102c-90-375-436-669-825-703
		s-759,174-931,523c-43,87-85,217-85,262c0,12-3,24-7,26C1618,4946,1572,4929,1520,4906z M2744,3789c511-68,950-495,1041-1013
		c19-114,19-318,0-432c-66-374-309-704-655-888c-286-152-650-180-965-75c-361,121-663,423-785,787c-41,124-60,245-60,392
		c0,329,116,620,341,854C1950,3716,2323,3845,2744,3789z"/>
	<path class="st0" d="M2356,3494c-343-76-621-339-718-679c-20-70-23-103-23-255s3-185,23-255c91-320,344-572,667-667
		c70-20,101-23,255-23c153,0,185,3,255,23c321,93,574,346,667,667c20,70,23,102,23,255s-3,185-23,255c-92,319-345,573-662,666
		C2720,3510,2460,3517,2356,3494z M2684,3229c111-41,206-163,221-283c9-68-15-164-57-228l-30-49l55-57c87-92,127-188,127-309
		c0-166-98-317-259-396c-62-30-71-32-181-32s-119,2-181,32c-161,79-259,230-259,396c0,121,40,217,127,309l55,57l-30,49
		c-42,64-66,160-57,228c14,118,109,241,218,283C2504,3256,2612,3257,2684,3229z"/>
	<path class="st0" d="M2468,3035c-67-45-87-152-40-215c33-45,81-70,132-70c112,0,186,109,145,215c-24,64-72,95-145,95
		C2518,3060,2496,3054,2468,3035z"/>
	<path class="st0" d="M2476,2546c-161-60-217-261-112-399c65-85,209-114,313-62c183,91,177,355-10,452
		C2624,2559,2524,2564,2476,2546z"/>
	<path class="st0" d="M77,3204c-3-5-14-52-26-105c-70-324-69-764,2-1084l22-100h55c76,1,189,40,274,95c137,89,241,234,280,386
		c21,81,21,247,0,328c-52,205-216,384-416,453C191,3204,86,3218,77,3204z"/>
	<path class="st0" d="M4935,3203c-249-63-438-244-499-479c-10-37-16-103-16-164c0-119,17-195,67-298c90-185,317-342,498-346l60-1
		l22,100c72,322,72,767,0,1090l-22,100l-45,2C4975,3207,4946,3206,4935,3203z"/>
	<path class="st0" d="M2385,681c-99-28-192-80-265-148c-119-110-201-271-204-398l-1-59l55-13c208-49,298-57,590-57
		c251,0,301,2,415,22c72,13,153,28,180,36l50,13v54c-1,75-40,189-95,273c-89,137-234,241-386,280C2640,706,2464,704,2385,681z"/>
</g>
</svg>
