<?xml version="1.0" encoding="utf-8"?>
<!-- Generator: Adobe Illustrator 25.2.0, SVG Export Plug-In . SVG Version: 6.00 Build 0)  -->
<svg version="1.1" id="Layer_1" xmlns="http://www.w3.org/2000/svg" xmlns:xlink="http://www.w3.org/1999/xlink" x="0px" y="0px"
	 viewBox="0 0 31 31" style="enable-background:new 0 0 31 31;" xml:space="preserve">
<style type="text/css">
	.st0{fill-rule:evenodd;clip-rule:evenodd;fill:#837790;}
</style>
<path class="st0" d="M18.9,30.8c2.3,0,4.2-1.4,5-3.5h6.8v-3.8h-6.8c-0.8-2-2.7-3.5-5-3.5s-4.2,1.4-5,3.5H0.8v3.8H14
	C14.7,29.3,16.7,30.8,18.9,30.8z M8.6,21.2c-2.3,0-4.2-1.4-5-3.5H0.8v-3.8h2.8c0.8-2,2.7-3.5,5-3.5c2.3,0,4.2,1.4,5,3.5h17.2v3.8
	H13.5C12.8,19.7,10.8,21.2,8.6,21.2L8.6,21.2z M8.6,17.8c-1.1,0-2-0.9-2-2.1c0-1.1,0.9-2.1,2-2.1c1.1,0,2,0.9,2,2.1
	C10.6,16.9,9.7,17.8,8.6,17.8z M22.4,0.8c2.3,0,4.2,1.4,5,3.5h3.4v3.8h-3.4c-0.8,2-2.7,3.5-5,3.5s-4.2-1.4-5-3.5H0.8V4.3h16.7
	C18.2,2.2,20.1,0.8,22.4,0.8L22.4,0.8z M22.4,4.1c1.1,0,2,0.9,2,2.1c0,1.1-0.9,2.1-2,2.1c-1.1,0-2-0.9-2-2.1
	C20.4,5,21.3,4.1,22.4,4.1z M18.9,27.5c1.1,0,2-0.9,2-2.1c0-1.1-0.9-2.1-2-2.1c-1.1,0-2,0.9-2,2.1C16.9,26.5,17.8,27.5,18.9,27.5z"
	/>
</svg>
