<?xml version="1.0" encoding="utf-8"?>
<!-- Generator: Adobe Illustrator 25.2.0, SVG Export Plug-In . SVG Version: 6.00 Build 0)  -->
<svg version="1.1" id="Layer_1" xmlns="http://www.w3.org/2000/svg" xmlns:xlink="http://www.w3.org/1999/xlink" x="0px" y="0px"
	 viewBox="0 0 512 512" style="enable-background:new 0 0 512 512;" xml:space="preserve">
<style type="text/css">
	.st0{fill:#837790;}
</style>
<g transform="translate(0.000000,512.000000) scale(0.100000,-0.100000)">
	<path class="st0" d="M0,4360v-300h2560h2560v300v300H2560H0V4360z"/>
	<path class="st0" d="M0,2560V1360h755h755v1200v1200H755H0V2560z M1210,2907v-253l-46-44c-104-102-192-257-230-408
		c-20-79-24-119-24-243v-149H758H607l7,148c8,174,17,240,51,357c42,143,141,329,221,416c19,20,24,36,24,77v52H760H610v-75v-75H460
		H310v225v225h450h450V2907z"/>
	<path class="st0" d="M1810,2560V1360h750h750v1200v1200h-750h-750V2560z M3010,2907v-253l-46-44c-104-102-192-257-230-408
		c-20-79-24-119-24-243v-149h-152h-151l7,148c8,174,17,240,51,357c42,143,141,329,221,416c19,20,24,36,24,77v52h-150h-150v-75v-75
		h-150h-150v225v225h450h450V2907z"/>
	<path class="st0" d="M3610,2560V1360h755h755v1200v1200h-755h-755V2560z M4810,2907v-253l-46-44c-104-102-192-257-230-408
		c-20-79-24-119-24-243v-149h-152h-151l7,148c8,174,17,240,51,357c42,143,141,329,221,416c19,20,24,36,24,77v52h-150h-150v-75v-75
		h-150h-150v225v225h450h450V2907z"/>
	<path class="st0" d="M0,760V460h2560h2560v300v300H2560H0V760z"/>
</g>
</svg>
