<?xml version="1.0" encoding="utf-8"?>
<!-- Generator: Adobe Illustrator 25.2.0, SVG Export Plug-In . SVG Version: 6.00 Build 0)  -->
<svg version="1.1" id="Layer_1" xmlns="http://www.w3.org/2000/svg" xmlns:xlink="http://www.w3.org/1999/xlink" x="0px" y="0px"
	 viewBox="0 0 512 512" style="enable-background:new 0 0 512 512;" xml:space="preserve">
<style type="text/css">
	.st0{fill:#837790;}
</style>
<g transform="translate(0.000000,512.000000) scale(0.100000,-0.100000)">
	<path class="st0" d="M2776,5109c-94-13-259-48-267-57c-10-9,513-387,535-387c17,0,545,374,546,386c0,3-37,13-82,23
		c-46,9-105,21-133,27C3308,5115,2862,5121,2776,5109z"/>
	<path class="st0" d="M2060,4878c-179-100-318-201-465-340l-80-75l140-432l140-432l184-59l184-59l369,267l368,267l-1,195v195
		l-359,260c-198,143-365,261-372,263C2161,4929,2112,4907,2060,4878z"/>
	<path class="st0" d="M3553,4668l-362-263v-195l-1-195l369-267l368-268l184,60l184,60l140,431l140,432l-90,84
		c-108,102-239,202-360,275c-94,57-189,108-202,108C3919,4930,3752,4812,3553,4668z"/>
	<path class="st0" d="M1267,4129c-122-191-230-477-273-723c-19-113-32-256-22-256c6,0,505,357,532,381c7,6-186,632-200,648
		C1303,4181,1286,4158,1267,4129z"/>
	<path class="st0" d="M4681,3860c-59-182-100-325-95-329c23-21,525-381,531-381c12,0-7,184-32,309c-15,69-45,182-67,251
		c-41,124-167,389-210,443l-23,28L4681,3860z"/>
	<path class="st0" d="M2698,3515c-186-135-338-249-338-253s58-185,128-402l128-395h429h429l128,395c70,217,128,398,128,402
		c0,9-661,490-680,495C3042,3759,2883,3650,2698,3515z"/>
	<path class="st0" d="M1340,3059c-225-164-356-267-358-279c-2-11,4-59,13-107c35-190,93-367,180-549l45-94l458,1h457l108,150
		c59,82,107,155,107,161c0,7-63,204-138,438l-138,425l-175,57c-96,32-181,57-189,57S1535,3201,1340,3059z"/>
	<path class="st0" d="M4186,3262l-170-57l-138-425c-76-234-138-431-138-438c0-8,48-80,108-162l107-149l457-1h458l48,103
		c89,186,147,365,178,550c12,68,15,110,9,116c-48,44-720,521-733,520C4363,3319,4279,3293,4186,3262z"/>
	<path class="st0" d="M2475,2015c-60-85-109-160-108-167c11-53,274-843,284-848c6-4,55-14,108-21c172-25,563-15,673,17
		c13,4,44,89,118,317c56,172,118,365,140,429l38,116l-112,154l-112,153l-459,2l-460,2L2475,2015z"/>
	<path class="st0" d="M756,1915c-31-11-120-94-384-357c-189-189-350-355-358-370c-18-35-18-111,1-148c31-60,97-89,172-75
		c33,6,84,52,391,358c194,194,360,364,368,379c22,41,18,109-8,148C892,1917,826,1940,756,1915z"/>
	<path class="st0" d="M1430,1730c0-16,219-238,299-302c150-120,331-231,490-298c40-17,75-29,78-27c5,6-8,49-117,385l-82,252h-334
		C1547,1740,1430,1736,1430,1730z"/>
	<path class="st0" d="M3966,1663c-13-43-59-183-100-310c-42-128-76-237-76-243c0-16,29-6,165,60c131,63,288,163,405,257
		c81,65,300,286,300,303c0,6-117,10-334,10h-334L3966,1663z"/>
	<path class="st0" d="M1155,1361c-27-13-216-195-581-562C276,500,25,244,16,230C-7,195-5,103,19,66C50,19,88,0,151,0
		c46,0,63,5,95,29c21,16,278,269,571,562c536,538,563,568,563,636c0,50-38,110-84,132C1244,1385,1207,1385,1155,1361z"/>
	<path class="st0" d="M1695,941c-16-10-186-176-377-367c-301-303-347-354-353-386c-14-76,15-142,75-173c37-19,113-19,148-1
		c15,8,183,171,374,363c376,377,378,380,358,466C1899,940,1777,992,1695,941z"/>
</g>
</svg>
