<?xml version="1.0" encoding="utf-8"?>
<!-- Generator: Adobe Illustrator 25.2.0, SVG Export Plug-In . SVG Version: 6.00 Build 0)  -->
<svg version="1.1" id="Layer_1" xmlns="http://www.w3.org/2000/svg" xmlns:xlink="http://www.w3.org/1999/xlink" x="0px" y="0px"
	 viewBox="0 0 512 512" style="enable-background:new 0 0 512 512;" xml:space="preserve">
<style type="text/css">
	.st0{fill:#837790;}
</style>
<g transform="translate(0.000000,512.000000) scale(0.100000,-0.100000)">
	<path class="st0" d="M1015,4701c-22-10-54-34-72-52c-68-72-63,99-63-2089s-5-2017,63-2089c18-18,50-42,72-52c38-18,100-19,1543-19
		c1659,0,1539-5,1611,63c73,70,71,41,71,725v614l-41-33c-111-88-253-74-342,32l-37,44l-349-350c-193-192-363-355-378-361
		c-15-7-111-36-213-64c-166-48-189-57-225-90c-100-94-216-104-316-27c-58,44-88,106-89,180c0,72,17,113,69,170c38,41,46,59,101,252
		c33,113,66,214,73,223c35,45,1724,1722,1735,1722c9,0,12,119,12,523c0,583,2,565-71,634c-72,68,48,63-1611,63
		C1115,4720,1053,4719,1015,4701z M3544,4051c34-32,34-70,0-102l-26-24H2454H1391l-22,22c-41,40-20,115,35,126c11,2,492,4,1068,3
		l1046-1L3544,4051z M3544,3651c34-32,34-70,0-102l-26-24H2454H1391l-22,22c-41,40-20,115,35,126c11,2,492,4,1068,3l1046-1
		L3544,3651z M3544,3251c34-32,34-70,0-102l-26-24H2454H1391l-22,22c-41,40-20,115,35,126c11,2,492,4,1068,3l1046-1L3544,3251z
		 M2344,2851c34-32,34-70,0-102l-26-24h-464h-463l-22,22c-41,40-20,115,35,126c11,3,222,4,468,3l446-1L2344,2851z"/>
	<path class="st0" d="M4332,3385c-37-17-94-65-197-166c-80-78-145-147-145-153s94-106,210-221l210-210l50,50l50,49l50-49l50-49
		l-325-326c-304-306-325-329-325-362c0-54,32-88,83-88c41,0,43,2,459,417c448,447,451,451,414,508c-20,31-61,48-93,40
		c-12-3-39-19-58-37l-36-31l-49,48l-49,48l50,61c76,93,96,186,64,293c-22,75-74,136-146,172C4516,3420,4413,3423,4332,3385z"/>
	<path class="st0" d="M3282,2367c-320-320-582-587-582-592c0-6,95-105,210-220l210-210l592,593l593,592l-210,210
		c-115,115-214,210-220,210S3603,2688,3282,2367z"/>
	<path class="st0" d="M2591,1614c-6-21-31-108-55-193c-42-145-47-156-90-200c-38-39-46-53-46-84c0-48,36-87,80-87c24,0,44,12,83,49
		c51,48,56,50,240,102c103,29,187,55,187,58c0,4-87,93-194,200l-194,194L2591,1614z"/>
</g>
</svg>
