<?xml version="1.0" encoding="utf-8"?>
<!-- Generator: Adobe Illustrator 25.2.0, SVG Export Plug-In . SVG Version: 6.00 Build 0)  -->
<svg version="1.1" id="Layer_1" xmlns="http://www.w3.org/2000/svg" xmlns:xlink="http://www.w3.org/1999/xlink" x="0px" y="0px"
	 viewBox="0 0 512 512" style="enable-background:new 0 0 512 512;" xml:space="preserve">
<style type="text/css">
	.st0{fill:#837790;}
</style>
<g transform="translate(0.000000,512.000000) scale(0.100000,-0.100000)">
	<path class="st0" d="M1256,5101c-15-10-37-32-47-47c-18-28-19-62-19-831v-803h1050h1050v803c0,769-1,803-19,831c-10,15-32,37-47,47
		c-28,18-65,19-984,19S1284,5119,1256,5101z"/>
	<path class="st0" d="M407,4060c-181-23-328-144-387-319c-16-48-20-86-20-191v-130h445h445v325v325l-212-1
		C561,4068,439,4064,407,4060z"/>
	<path class="st0" d="M3590,3745v-325h316h316l-4,158c-3,155-3,158-37,227c-45,91-128,176-214,215c-70,33-165,49-294,50h-83V3745z"
		/>
	<path class="st0" d="M0,1769V409l25-76C71,196,160,91,278,33l57-28h2095h2095l57,28c118,58,207,163,253,300c24,72,25,86,25,316v241
		h-507c-525,1-615,6-720,41c-122,40-274,163-362,292c-161,237-187,540-66,794c95,201,262,358,449,420l81,27l563,4l562,3v273
		c0,267-1,274-22,306c-13,18-36,43-51,54l-28,21l-2380,3L0,3130V1769z"/>
	<path class="st0" d="M3700,2144c-76-35-130-82-184-161c-69-101-96-186-96-303s27-202,96-303c54-79,108-126,184-161l55-26h635
		c605,0,636,1,664,19c15,10,37,32,47,47c18,27,19,54,19,424s-1,397-19,424c-10,15-32,37-47,47c-28,18-59,19-664,19h-635L3700,2144z
		 M3994,1801c43-29,66-70,66-121c0-80-60-140-140-140c-106,0-175,114-125,209C3828,1814,3932,1841,3994,1801z"/>
</g>
</svg>
